<?xml version="1.0" encoding="UTF-8"?><svg id="Layer_2" xmlns="http://www.w3.org/2000/svg" viewBox="0 0 96 96"><defs><style>.cls-1{fill:#1f252b;}.cls-2{fill:#e1b627;}</style></defs><g id="Layer_1-2"><rect class="cls-1" width="96" height="96" rx="17.13" ry="17.13"/><g id="Logo_source"><path class="cls-2" d="M11.36,14.96h11.69v3.73h-7.26v2.48h6.01v3.44h-6.01v5.52h-4.44v-15.17Z"/><path class="cls-2" d="M27.98,22.6c0-4.54,2.97-7.92,7.68-7.92s7.72,3.37,7.72,7.92-3.01,7.89-7.72,7.89-7.68-3.35-7.68-7.89ZM38.89,22.6c0-2.48-1.08-4.37-3.2-4.37s-3.2,1.89-3.2,4.37,1.08,4.35,3.2,4.35,3.2-1.87,3.2-4.35Z"/><path class="cls-2" d="M49.2,14.96h7.53c3.1,0,5.73,1.42,5.73,4.52,0,1.74-.89,2.97-2.48,3.69v.06c1.23.47,1.87,1.32,2.12,2.5.4,1.82.06,4.01.62,4.16v.23h-4.37c-.42-.3-.25-2.16-.57-3.52-.28-1.17-.79-1.76-2.08-1.76h-2.06v5.28h-4.44v-15.17ZM53.63,21.69h2.38c1.27,0,1.97-.55,1.97-1.61,0-1-.64-1.63-1.91-1.63h-2.44v3.25Z"/><path class="cls-2" d="M68.45,14.96h5.77l2.33,8.49h.04l2.33-8.49h5.81v15.17h-4.01v-9.51h-.04l-2.53,9.51h-3.25l-2.53-9.51h-.04v9.51h-3.9v-15.17Z"/><path class="cls-2" d="M11.26,40.37h4.44v15.17h-4.44v-15.17Z"/><path class="cls-2" d="M28.51,50.71h4.54c.15,1.21,1.08,1.78,2.55,1.78.87,0,1.93-.34,1.93-1.25s-1.02-1.15-2.89-1.61c-2.55-.64-5.62-1.51-5.62-4.73,0-3.48,2.84-4.8,6.26-4.8,3.14,0,6.03,1.32,6.09,4.63h-4.39c-.13-.83-.72-1.36-1.93-1.36-.98,0-1.66.45-1.66,1.06,0,.89,1.29,1.02,3.57,1.57,2.55.62,5.09,1.61,5.09,4.84s-2.95,5.07-6.54,5.07c-3.95,0-6.94-1.7-7-5.2Z"/><path class="cls-2" d="M11.26,66.14h4.44v5.52h6.01v3.44h-6.01v2.48h7.26v3.73h-11.69v-15.17Z"/><path class="cls-2" d="M27.98,66.14h4.41l.74,2.23h5.14l.74-2.23h4.71l-5.62,15.17h-4.52l-5.6-15.17ZM35.13,74.4c.25.74.57,1.95.57,1.95h.04s.34-1.21.57-1.95l.95-2.97h-3.14l1,2.97Z"/><path class="cls-2" d="M50.71,66.14h4.44v4.9l.98,1.1,3.86-6.01h5.16l-5.98,9.06,5.67,6.11h-5.09l-4.58-4.97v4.97h-4.44v-15.17Z"/><path class="cls-2" d="M72.12,66.14h12.03v3.8h-7.6v2.38h6.18v3.33h-6.18v2.06h7.38v3.61h-11.82v-15.17Z"/></g></g></svg>